<svg width="120" height="26" viewBox="0 0 120 26" fill="none" xmlns="http://www.w3.org/2000/svg">
<path d="M20.3431 22.2768C19.7679 22.2768 19.283 22.0878 18.8886 21.7097C18.5106 21.3317 18.3215 20.8469 18.3215 20.2552C18.3215 19.6635 18.5106 19.1869 18.8886 18.8253C19.283 18.4473 19.7679 18.2583 20.3431 18.2583C20.9184 18.2583 21.395 18.4473 21.773 18.8253C22.1674 19.2033 22.3647 19.68 22.3647 20.2552C22.3647 20.8469 22.1674 21.3317 21.773 21.7097C21.395 22.0878 20.9184 22.2768 20.3431 22.2768Z" fill="#FFC36A"/>
<path d="M24.9572 25.9852V8.65032H26.6544V25.9852H24.9572Z" fill="#FFC36A"/>
<path d="M32.7858 23.5073L35.2638 14.8344H37.6178L40.0834 23.5073H38.7081L38.1382 21.4629H34.7434L34.1735 23.5073H32.7858ZM35.0779 20.224H37.8037L36.5399 15.6645H36.3417L35.0779 20.224Z" fill="#111827"/>
<path d="M44.1328 23.6807C43.5464 23.6807 43.0136 23.5568 42.5346 23.309C42.0637 23.0612 41.6879 22.7019 41.4071 22.2311C41.1345 21.7603 40.9982 21.1945 40.9982 20.5337V20.3726C40.9982 19.7118 41.1345 19.1502 41.4071 18.6876C41.6879 18.2168 42.0637 17.8575 42.5346 17.6097C43.0136 17.3536 43.5464 17.2256 44.1328 17.2256C44.7193 17.2256 45.219 17.333 45.632 17.5478C46.045 17.7625 46.3754 18.0475 46.6232 18.4027C46.8793 18.7578 47.0445 19.1502 47.1188 19.5797L45.8798 19.8399C45.8385 19.5673 45.7518 19.3195 45.6196 19.0965C45.4875 18.8735 45.3016 18.6959 45.0621 18.5637C44.8225 18.4316 44.5211 18.3655 44.1576 18.3655C43.8024 18.3655 43.4803 18.4481 43.1912 18.6133C42.9104 18.7702 42.6874 19.0015 42.5222 19.3071C42.357 19.6045 42.2744 19.9679 42.2744 20.3974V20.5089C42.2744 20.9384 42.357 21.306 42.5222 21.6116C42.6874 21.9172 42.9104 22.1485 43.1912 22.3054C43.4803 22.4624 43.8024 22.5409 44.1576 22.5409C44.6945 22.5409 45.1034 22.4046 45.3842 22.132C45.6651 21.8512 45.8426 21.496 45.917 21.0665L47.156 21.3514C47.0568 21.7727 46.8793 22.1609 46.6232 22.5161C46.3754 22.8712 46.045 23.1562 45.632 23.371C45.219 23.5775 44.7193 23.6807 44.1328 23.6807Z" fill="#111827"/>
<path d="M48.6278 23.5073V14.8344H49.904V18.2664H50.1022C50.1848 18.1094 50.3005 17.9566 50.4491 17.8079C50.6061 17.6593 50.8084 17.5395 51.0562 17.4486C51.3123 17.3495 51.6344 17.3 52.0226 17.3C52.4852 17.3 52.8941 17.4032 53.2492 17.6097C53.6127 17.8162 53.8976 18.1094 54.1041 18.4894C54.3106 18.8611 54.4139 19.3112 54.4139 19.8399V23.5073H53.1377V19.939C53.1377 19.4104 53.0056 19.0221 52.7413 18.7743C52.4769 18.5183 52.1135 18.3903 51.6509 18.3903C51.1223 18.3903 50.6969 18.5637 50.3748 18.9106C50.0609 19.2575 49.904 19.7614 49.904 20.4222V23.5073H48.6278Z" fill="#111827"/>
<path d="M58.3732 23.5073C58.0015 23.5073 57.7042 23.3957 57.4811 23.1727C57.2664 22.9497 57.159 22.6524 57.159 22.2807V18.477H55.474V17.3991H57.159V15.3795H58.4352V17.3991H60.2565V18.477H58.4352V22.0576C58.4352 22.3054 58.5508 22.4293 58.7821 22.4293H60.0582V23.5073H58.3732Z" fill="#111827"/>
<path d="M64.338 23.6807C63.7185 23.6807 63.1775 23.5527 62.715 23.2966C62.2524 23.0323 61.889 22.6647 61.6247 22.1939C61.3686 21.7149 61.2406 21.1615 61.2406 20.5337V20.385C61.2406 19.749 61.3686 19.1956 61.6247 18.7248C61.8807 18.2457 62.2359 17.8781 62.6902 17.6221C63.1527 17.3578 63.6855 17.2256 64.2885 17.2256C64.8749 17.2256 65.387 17.3578 65.8248 17.6221C66.2708 17.8781 66.6178 18.2375 66.8656 18.7C67.1134 19.1626 67.2372 19.7036 67.2372 20.3231V20.8063H62.5415C62.558 21.3432 62.7356 21.7727 63.0743 22.0948C63.4212 22.4087 63.8507 22.5656 64.3628 22.5656C64.8419 22.5656 65.2012 22.4583 65.4407 22.2435C65.6885 22.0287 65.8785 21.7809 66.0107 21.5001L67.0638 22.0453C66.9482 22.2765 66.7788 22.5202 66.5558 22.7763C66.3411 23.0323 66.0561 23.2471 65.7009 23.4205C65.3457 23.594 64.8914 23.6807 64.338 23.6807ZM62.5539 19.8275H65.9363C65.9033 19.3649 65.7381 19.0056 65.4407 18.7496C65.1434 18.4852 64.7552 18.3531 64.2761 18.3531C63.797 18.3531 63.4047 18.4852 63.099 18.7496C62.8017 19.0056 62.62 19.3649 62.5539 19.8275Z" fill="#111827"/>
<path d="M68.7734 23.5073V17.3991H70.0248V18.3159H70.223C70.3386 18.0681 70.5451 17.8368 70.8425 17.6221C71.1398 17.4073 71.5818 17.3 72.1682 17.3C72.6308 17.3 73.0396 17.4032 73.3948 17.6097C73.7582 17.8162 74.0432 18.1094 74.2497 18.4894C74.4562 18.8611 74.5594 19.3112 74.5594 19.8399V23.5073H73.2833V19.939C73.2833 19.4104 73.1511 19.0221 72.8868 18.7743C72.6225 18.5183 72.2591 18.3903 71.7965 18.3903C71.2679 18.3903 70.8425 18.5637 70.5204 18.9106C70.2065 19.2575 70.0495 19.7614 70.0495 20.4222V23.5073H68.7734Z" fill="#111827"/>
<path d="M79.9271 23.6807C79.3324 23.6807 78.874 23.5733 78.5519 23.3586C78.238 23.1438 78.0026 22.9043 77.8456 22.64H77.6474V23.5073H76.396V14.8344H77.6722V18.2292H77.8704C77.9695 18.064 78.1017 17.9071 78.2669 17.7584C78.4321 17.6014 78.651 17.4734 78.9236 17.3743C79.1961 17.2752 79.5307 17.2256 79.9271 17.2256C80.4393 17.2256 80.9101 17.3495 81.3396 17.5973C81.7691 17.8451 82.1119 18.2044 82.3679 18.6752C82.624 19.146 82.752 19.7077 82.752 20.3602V20.5461C82.752 21.2069 82.6199 21.7727 82.3555 22.2435C82.0995 22.706 81.7567 23.0612 81.3272 23.309C80.9059 23.5568 80.4393 23.6807 79.9271 23.6807ZM79.5554 22.5656C80.1089 22.5656 80.5632 22.388 80.9183 22.0329C81.2818 21.6777 81.4635 21.1697 81.4635 20.5089V20.3974C81.4635 19.7449 81.2859 19.241 80.9307 18.8859C80.5755 18.5307 80.1171 18.3531 79.5554 18.3531C79.0103 18.3531 78.556 18.5307 78.1926 18.8859C77.8374 19.241 77.6598 19.7449 77.6598 20.3974V20.5089C77.6598 21.1697 77.8374 21.6777 78.1926 22.0329C78.556 22.388 79.0103 22.5656 79.5554 22.5656Z" fill="#111827"/>
<path d="M87.1334 23.6807C86.5139 23.6807 85.9729 23.5527 85.5103 23.2966C85.0478 23.0323 84.6843 22.6647 84.42 22.1939C84.1639 21.7149 84.0359 21.1615 84.0359 20.5337V20.385C84.0359 19.749 84.1639 19.1956 84.42 18.7248C84.6761 18.2457 85.0312 17.8781 85.4855 17.6221C85.9481 17.3578 86.4808 17.2256 87.0838 17.2256C87.6703 17.2256 88.1824 17.3578 88.6201 17.6221C89.0662 17.8781 89.4131 18.2375 89.6609 18.7C89.9087 19.1626 90.0326 19.7036 90.0326 20.3231V20.8063H85.3368C85.3534 21.3432 85.531 21.7727 85.8696 22.0948C86.2165 22.4087 86.646 22.5656 87.1582 22.5656C87.6372 22.5656 87.9965 22.4583 88.2361 22.2435C88.4839 22.0287 88.6738 21.7809 88.806 21.5001L89.8591 22.0453C89.7435 22.2765 89.5742 22.5202 89.3511 22.7763C89.1364 23.0323 88.8514 23.2471 88.4963 23.4205C88.1411 23.594 87.6868 23.6807 87.1334 23.6807ZM85.3492 19.8275H88.7317C88.6986 19.3649 88.5334 19.0056 88.2361 18.7496C87.9387 18.4852 87.5505 18.3531 87.0714 18.3531C86.5923 18.3531 86.2 18.4852 85.8944 18.7496C85.597 19.0056 85.4153 19.3649 85.3492 19.8275Z" fill="#111827"/>
<path d="M91.5687 23.5073V17.3991H92.8201V18.1177H93.0183C93.1175 17.8616 93.2744 17.6758 93.4892 17.5601C93.7122 17.4362 93.9847 17.3743 94.3069 17.3743H95.0379V18.5265H94.2573C93.8443 18.5265 93.5057 18.6422 93.2414 18.8735C92.977 19.0965 92.8449 19.4434 92.8449 19.9142V23.5073H91.5687Z" fill="#111827"/>
<path d="M95.845 20.4841V20.2983C95.845 19.654 95.973 19.1047 96.2291 18.6504C96.4934 18.1962 96.8403 17.8451 97.2698 17.5973C97.6993 17.3495 98.1701 17.2256 98.6822 17.2256C99.277 17.2256 99.7312 17.3371 100.045 17.5601C100.367 17.7832 100.603 18.0227 100.751 18.2788H100.95V17.3991H102.189V24.7586C102.189 25.1303 102.077 25.4277 101.854 25.6507C101.639 25.8737 101.342 25.9852 100.962 25.9852H96.8485V24.8701H100.565C100.805 24.8701 100.925 24.7462 100.925 24.4984V22.5532H100.727C100.636 22.7019 100.508 22.8547 100.342 23.0117C100.177 23.1686 99.9584 23.2966 99.6858 23.3957C99.4215 23.4949 99.087 23.5444 98.6822 23.5444C98.1701 23.5444 97.6952 23.4247 97.2574 23.1851C96.8279 22.9373 96.4851 22.5863 96.2291 22.132C95.973 21.6694 95.845 21.1202 95.845 20.4841ZM99.0292 22.4293C99.5826 22.4293 100.037 22.2559 100.392 21.909C100.755 21.5538 100.937 21.0665 100.937 20.447V20.3355C100.937 19.6995 100.76 19.2121 100.404 18.8735C100.049 18.5265 99.5908 18.3531 99.0292 18.3531C98.484 18.3531 98.0297 18.5265 97.6663 18.8735C97.3111 19.2121 97.1335 19.6995 97.1335 20.3355V20.447C97.1335 21.0665 97.3111 21.5538 97.6663 21.909C98.0297 22.2559 98.484 22.4293 99.0292 22.4293Z" fill="#111827"/>
</svg>
