<svg width="34" height="34" viewBox="0 0 34 34" fill="none" xmlns="http://www.w3.org/2000/svg">
<rect x="0.561279" y="0.335571" width="33.2115" height="33.2115" rx="4.08757" fill="white"/>
<path d="M24.8313 12.3033C24.2573 12.5525 23.6484 12.716 23.025 12.7885C23.6744 12.4071 24.173 11.8032 24.4077 11.0836C23.7904 11.4426 23.1151 11.6955 22.4108 11.8314C21.8371 11.2326 21.0199 10.8583 20.1153 10.8583C18.3785 10.8583 16.9704 12.238 16.9704 13.9398C16.9704 14.1814 16.9983 14.4165 17.0518 14.6421C14.4382 14.5136 12.121 13.2868 10.5699 11.4224C10.2993 11.8775 10.1442 12.4069 10.1442 12.9716C10.1442 14.0407 10.6994 14.9839 11.5432 15.5365C11.0438 15.5212 10.5554 15.389 10.1187 15.1511C10.1186 15.164 10.1186 15.1769 10.1186 15.1898C10.1186 16.6829 11.2026 17.9284 12.6412 18.2115C12.1781 18.3349 11.6923 18.353 11.221 18.2643C11.6212 19.4886 12.7826 20.3795 14.1587 20.4044C13.0824 21.2309 11.7264 21.7236 10.253 21.7236C9.99916 21.7236 9.74888 21.709 9.50285 21.6805C10.8946 22.5549 12.5476 23.065 14.3235 23.065C20.108 23.065 23.2711 18.3693 23.2711 14.2972C23.2711 14.1635 23.2681 14.0306 23.262 13.8985C23.8777 13.4624 24.4091 12.9222 24.8313 12.3033" fill="#55ACEE"/>
</svg>
