<svg width="34" height="34" viewBox="0 0 34 34" fill="none" xmlns="http://www.w3.org/2000/svg">
<rect x="0.437027" y="0.335571" width="33.2115" height="33.2115" rx="4.08757" fill="#55ACEE"/>
<path fill-rule="evenodd" clip-rule="evenodd" d="M15.4007 15.0054H17.7728V16.187C18.1145 15.5074 18.9908 14.8969 20.3071 14.8969C22.8306 14.8969 23.4296 16.2496 23.4296 18.7315V23.3281H20.8749V19.2967C20.8749 17.8833 20.5332 17.0863 19.6633 17.0863C18.4568 17.0863 17.9555 17.9453 17.9555 19.2961V23.3281H15.4007V15.0054V15.0054ZM11.02 23.2195H13.5748V14.8969H11.02V23.2195V23.2195ZM13.9407 12.1831C13.9408 12.3972 13.8983 12.6092 13.8158 12.8068C13.7332 13.0044 13.6122 13.1836 13.4598 13.334C13.1509 13.641 12.7328 13.8128 12.2974 13.8117C11.8627 13.8114 11.4456 13.6401 11.1363 13.3346C10.9844 13.1837 10.8638 13.0043 10.7814 12.8067C10.699 12.6091 10.6563 12.3972 10.656 12.1831C10.656 11.7507 10.8284 11.3368 11.1369 11.0315C11.4459 10.7257 11.8632 10.5543 12.298 10.5544C12.7336 10.5544 13.1513 10.7262 13.4598 11.0315C13.7676 11.3368 13.9407 11.7507 13.9407 12.1831Z" fill="white"/>
</svg>
